<?xml version="1.0" encoding="utf-8"?>
<svg version="1.1" id="home" xmlns="http://www.w3.org/2000/svg" xlink="http://www.w3.org/1999/xlink" x="0px" y="0px"
	 width="183.869px" height="158.925px" viewBox="0 0 183.869 158.925" enable-background="new 0 0 183.869 158.925"
	 xml:space="preserve">
<g>
	<path d="M61.947,24.987c0,0,0.174,0.055,0.511,0.163c0.334,0.116,0.846,0.232,1.465,0.546c0.644,0.272,1.391,0.676,2.275,1.114
		c0.445,0.2,0.91,0.465,1.424,0.653c0.526,0.204,1.086,0.469,1.676,0.641c1.158,0.415,2.521,0.736,3.992,1.018
		c1.486,0.24,3.099,0.446,4.842,0.547c0.437,0.02,0.88,0.04,1.331,0.061l0.169,0.008c-0.013-0.001,0.09,0.005-0.019-0.001
		l0.043-0.001l0.087-0.002l0.347-0.01c0.232-0.007,0.467-0.014,0.703-0.021c0.472-0.014,0.951-0.028,1.436-0.042
		c0.484-0.016,0.987-0.011,1.444-0.103c0.924-0.128,1.871-0.259,2.841-0.394c1.007-0.221,2.118-0.387,3.098-0.671
		c4.052-0.999,8.321-2.764,11.691-5.894c0.397-0.391,0.864-0.821,1.215-1.182l0.626-0.711l0.496-0.637
		c0.668-0.908,1.217-1.883,1.576-2.898c0.365-1.04,0.514-2.005,0.552-3.273c0.015-0.48-0.047-1.017-0.115-1.549l-0.178-0.763
		c-0.077-0.248-0.182-0.483-0.264-0.728c-0.214-0.468-0.439-0.932-0.766-1.349l-0.223-0.324l-0.276-0.297l-0.272-0.3l-0.067-0.076
		l-0.034-0.038c-0.091-0.09,0.088,0.08,0.051,0.046l-0.196-0.171l-0.783-0.687c-0.258-0.22-0.446-0.302-0.667-0.466l-0.316-0.222
		l-0.382-0.207c-0.259-0.133-0.501-0.292-0.771-0.409c-1.063-0.499-2.243-0.832-3.477-1.083c-0.628-0.103-1.254-0.225-1.913-0.286
		l-0.488-0.059C94.486,4.915,94.752,4.932,94.7,4.93l-0.067-0.002l-0.134-0.005l-0.268-0.011l-1.074-0.042l-1.072-0.04L91.18,4.91
		c-0.606,0.06-1.192,0.052-1.846,0.208c-0.635,0.136-1.282,0.196-1.912,0.386l-1.894,0.553c-2.508,0.862-4.93,2.148-7.282,3.626
		l-0.886,0.549l-0.111,0.068c0.123-0.083,0.002,0,0.015-0.009l-0.056,0.039l-0.224,0.156l-0.448,0.313
		c-0.579,0.415-1.246,0.835-1.71,1.245c-0.504,0.423-1.023,0.792-1.521,1.253l-1.492,1.381c-1.931,1.904-3.619,4.05-5.095,6.323
		c-0.383,0.559-0.733,1.14-1.066,1.731l-0.511,0.878l-0.128,0.219l-0.11,0.207l-0.25,0.471c-0.35,0.632-0.674,1.246-0.961,1.83
		c-0.309,0.588-0.588,1.196-0.865,1.805c-1.097,2.429-1.956,4.888-2.371,7.354c-0.077,0.607-0.193,1.254-0.244,1.822
		c-0.046,0.663-0.125,1.373-0.143,1.99c-0.049,1.214-0.041,2.444,0.043,3.646c0.188,2.391,0.797,4.62,1.87,6.559
		c0.302,0.466,0.602,0.928,0.899,1.388l0.111,0.173c0.056,0.071-0.047-0.048-0.022-0.019l0.037,0.044l0.073,0.089l0.292,0.356
		c0.192,0.229,0.397,0.502,0.561,0.643c0.62,0.709,1.515,1.362,2.35,1.879c0.858,0.537,1.819,0.86,2.781,1.134l0.738,0.155
		l0.184,0.04l0.046,0.01c0.086,0.011-0.066-0.003-0.031,0l0.104,0.011l0.417,0.044c0.555,0.059,1.104,0.117,1.647,0.175
		c0.537,0.05,0.995,0.009,1.491,0.023c0.486,0.001,0.966,0.021,1.462-0.051c0.492-0.049,0.979-0.097,1.46-0.144
		c0.48-0.06,0.949-0.172,1.417-0.25c1.875-0.325,3.607-0.935,5.227-1.534c0.792-0.348,1.568-0.672,2.307-1.016
		c0.723-0.364,1.42-0.714,2.091-1.051c0.665-0.381,1.326-0.731,1.916-1.093c0.569-0.378,1.112-0.74,1.628-1.082
		c0.96-0.786,1.853-1.471,2.492-2.207c0.352-0.355,0.628-0.663,0.973-0.988c0.153-0.145,0.3-0.282,0.438-0.413
		c0.173-0.105,0.338-0.205,0.493-0.299c0.3-0.208,0.605-0.274,0.853-0.368c0.246-0.1,0.467-0.132,0.643-0.161
		c0.349-0.061,0.528-0.093,0.528-0.093s-0.174,0.055-0.511,0.16c-0.169,0.05-0.378,0.109-0.604,0.238
		c-0.226,0.12-0.512,0.223-0.752,0.445c-0.126,0.098-0.26,0.202-0.4,0.311c-0.121,0.147-0.248,0.303-0.381,0.466
		c-0.237,0.279-0.525,0.696-0.823,1.087c-0.56,0.854-1.393,1.662-2.318,2.591c-0.506,0.42-1.039,0.863-1.598,1.327
		c-0.568,0.438-1.173,0.846-1.798,1.299c-0.681,0.458-1.353,0.864-2.078,1.316c-0.731,0.424-1.511,0.834-2.31,1.272
		c-3.269,1.622-7.251,3.058-12.049,3.077c-0.546-0.02-1.098-0.04-1.655-0.06l-0.419-0.015l-0.105-0.004l-0.135-0.013l-0.058-0.007
		l-0.232-0.032l-0.935-0.13c-1.242-0.251-2.525-0.596-3.725-1.223c-0.601-0.3-1.195-0.647-1.746-1.051l-0.822-0.625l-0.803-0.741
		c-0.294-0.263-0.463-0.475-0.677-0.704l-0.31-0.341l-0.077-0.085l-0.039-0.043l-0.09-0.112l-0.152-0.207
		c-0.401-0.558-0.806-1.121-1.213-1.687c-1.488-2.379-2.394-5.186-2.756-8.019c-0.105-0.71-0.13-1.417-0.196-2.134
		c-0.043-0.716-0.018-1.447-0.026-2.177c0.004-0.725,0.058-1.358,0.085-2.047c0.045-0.783,0.15-1.479,0.227-2.229
		c0.405-2.942,1.316-5.798,2.449-8.523c0.285-0.68,0.574-1.362,0.901-2.037c0.318-0.694,0.638-1.343,0.958-1.965l0.245-0.474
		l0.138-0.266l0.139-0.244l0.554-0.978c0.362-0.657,0.745-1.305,1.165-1.935c1.62-2.55,3.502-4.995,5.684-7.191l1.688-1.597
		c0.564-0.531,1.223-1.025,1.834-1.536c0.637-0.545,1.207-0.902,1.806-1.341l0.445-0.317l0.222-0.159l0.182-0.127l0.121-0.076
		l0.968-0.607c2.591-1.592,5.359-3.04,8.359-4.039c0.756-0.23,1.524-0.432,2.286-0.644c0.761-0.215,1.563-0.299,2.341-0.45
		c0.761-0.166,1.624-0.185,2.451-0.241L92.291,0l1.078,0.051l1.073,0.053l0.268,0.013l0.134,0.007l0.067,0.003l0.206,0.017
		l0.575,0.074c0.762,0.085,1.537,0.223,2.306,0.382c1.539,0.359,3.086,0.844,4.551,1.585c0.367,0.177,0.715,0.404,1.07,0.606
		l0.529,0.316l0.534,0.391c0.336,0.257,0.744,0.543,1.008,0.784l0.763,0.71l0.19,0.177c-0.004-0.003,0.203,0.196,0.14,0.14
		l0.053,0.06l0.104,0.119l0.412,0.479l0.406,0.481l0.355,0.532c0.492,0.692,0.865,1.475,1.182,2.26
		c0.134,0.403,0.281,0.803,0.39,1.208l0.245,1.228c0.09,0.813,0.153,1.619,0.098,2.482c-0.063,1.408-0.385,3.094-0.99,4.5
		c-0.595,1.436-1.414,2.706-2.326,3.821l-0.731,0.84l-0.671,0.689c-0.554,0.528-1.041,0.926-1.56,1.386
		c-2.098,1.701-4.354,3.117-6.7,3.994c-2.338,0.902-4.618,1.539-6.888,1.903c-1.145,0.238-2.165,0.312-3.215,0.466
		c-1.158,0.09-2.199,0.146-3.256,0.197c-0.533,0.048-1.015-0.001-1.5-0.028c-0.485-0.028-0.963-0.057-1.434-0.084
		c-0.236-0.014-0.47-0.028-0.702-0.042l-0.347-0.02l-0.234-0.016l-0.174-0.023c-0.461-0.063-0.916-0.124-1.364-0.184
		c-1.789-0.271-3.458-0.609-4.972-1.038c-1.51-0.46-2.863-0.935-4.056-1.512c-0.613-0.256-1.117-0.567-1.625-0.83
		c-0.527-0.268-0.953-0.596-1.383-0.859c-0.83-0.554-1.511-1.044-2.091-1.383c-0.561-0.383-1.061-0.569-1.376-0.726
		C62.112,25.064,61.947,24.987,61.947,24.987z"/>
</g>
<g>
	<path d="M74.907,96.027c0,0,0.002,0.133,0.007,0.39c0.019,0.245-0.115,0.663-0.273,1.12c-0.332,0.938-0.792,2.326-1.431,4.069
		c-0.632,1.746-1.385,3.872-2.305,6.285c-0.81,2.439-1.723,5.191-2.719,8.193c-1.008,2.97-2.096,6.285-3.297,9.702l-0.224,0.647
		l-0.112,0.324l-0.174,0.425c-0.179,0.426-0.358,0.853-0.54,1.283c-0.38,0.863-0.687,1.726-1.14,2.617
		c-0.464,0.893-0.933,1.795-1.406,2.706l-0.395,0.734l-0.377,0.633c-0.252,0.422-0.505,0.847-0.759,1.272
		c-0.254,0.426-0.509,0.854-0.766,1.283l-0.896,1.312c-0.618,0.861-1.187,1.793-1.874,2.602c-0.67,0.829-1.32,1.685-2.023,2.506
		c-0.741,0.791-1.486,1.587-2.234,2.386c-3.106,3.098-6.757,5.787-10.724,7.869l-1.502,0.753l-0.751,0.375l-0.817,0.335
		c-0.984,0.395-1.917,0.805-3.069,1.148l-1.649,0.532l-1.634,0.393c-1.082,0.287-2.184,0.45-3.28,0.618l-0.82,0.129l-0.103,0.016
		l-0.17,0.02l-0.194,0.018l-0.387,0.034c-0.529,0.041-1.004,0.105-1.574,0.127l-1.718,0.042c-0.563-0.002-1.108-0.037-1.66-0.056
		c-2.196-0.133-4.363-0.45-6.422-1.029c-1.021-0.311-2.042-0.599-3.006-1.005c-0.505-0.211-0.927-0.339-1.491-0.616
		c-0.435-0.215-0.868-0.429-1.298-0.642c-1.958-1.048-3.58-2.274-5.01-3.744c-0.728-0.713-1.316-1.533-1.903-2.322
		c-0.505-0.846-1.039-1.657-1.38-2.541l-0.284-0.644l-0.07-0.16l-0.018-0.04c-0.095-0.245-0.033-0.09-0.057-0.154l-0.022-0.076
		l-0.088-0.305c-0.117-0.404-0.233-0.805-0.348-1.201c-0.131-0.363-0.188-0.878-0.264-1.329c-0.067-0.461-0.134-0.916-0.201-1.367
		c-0.017-0.85-0.073-1.688-0.044-2.483c0.063-0.811,0.044-1.526,0.183-2.354c0.055-0.357,0.109-0.711,0.163-1.06
		c0.076-0.369,0.18-0.755,0.269-1.119c0.156-0.753,0.456-1.39,0.68-2.042c1.064-2.554,2.665-4.361,4.053-5.644
		c0.369-0.315,0.669-0.611,1.035-0.891c0.344-0.235,0.636-0.473,0.967-0.66c0.331-0.179,0.638-0.345,0.919-0.496
		c0.295-0.106,0.564-0.202,0.804-0.289c0.466-0.198,0.876-0.18,1.122-0.246c0.253-0.041,0.384-0.063,0.384-0.063
		s-0.125,0.046-0.367,0.136c-0.233,0.112-0.612,0.172-1.029,0.438c-0.211,0.12-0.446,0.253-0.705,0.4
		c-0.23,0.181-0.481,0.378-0.752,0.591c-0.267,0.214-0.531,0.521-0.828,0.802c-0.255,0.263-0.537,0.626-0.826,0.961
		c-1.131,1.401-2.302,3.271-2.972,5.597c-0.12,0.589-0.322,1.196-0.364,1.805c-0.035,0.309-0.085,0.603-0.114,0.929
		c-0.011,0.354-0.021,0.711-0.033,1.072c-0.025,0.611,0.045,1.385,0.059,2.091c0.042,0.722,0.167,1.433,0.246,2.166
		c0.082,0.328,0.164,0.66,0.248,0.995c0.09,0.34,0.117,0.647,0.304,1.052c0.152,0.385,0.306,0.772,0.461,1.163l0.117,0.294
		l0.029,0.074c-0.015-0.04,0.054,0.142-0.03-0.08l0.018,0.031l0.071,0.124l0.284,0.501c0.349,0.688,0.817,1.307,1.259,1.951
		c0.518,0.589,1.014,1.204,1.632,1.723c1.174,1.064,2.648,2.003,4.105,2.664c0.439,0.181,0.881,0.362,1.325,0.545
		c0.307,0.141,0.82,0.285,1.221,0.43c0.849,0.313,1.741,0.511,2.626,0.738c1.789,0.398,3.64,0.609,5.521,0.657
		c0.469-0.002,0.948,0.014,1.411-0.001l1.368-0.078c0.46-0.023,1.013-0.104,1.517-0.154l0.387-0.043l0.193-0.021l0.048-0.005
		c0.032-0.004-0.105,0.011-0.026,0.001l0.09-0.017l0.719-0.131c0.959-0.169,1.924-0.328,2.866-0.604l1.423-0.367l1.354-0.448
		c0.875-0.249,1.877-0.689,2.852-1.09l0.649-0.269l0.665-0.34l1.331-0.678c3.536-1.827,6.775-4.189,9.646-6.897
		c0.692-0.706,1.381-1.409,2.067-2.109c0.665-0.724,1.283-1.487,1.924-2.222c0.666-0.726,1.177-1.521,1.764-2.274l0.858-1.135
		c0.277-0.417,0.553-0.832,0.827-1.245s0.548-0.824,0.82-1.234l0.407-0.612l0.322-0.543c0.477-0.79,0.949-1.573,1.417-2.348
		c0.472-0.777,0.867-1.676,1.296-2.492c0.21-0.417,0.419-0.832,0.626-1.243l0.078-0.154l0.039-0.077
		c0.017-0.035-0.071,0.174-0.026,0.066l0.017-0.04l0.134-0.316l0.268-0.63c1.412-3.371,2.781-6.479,4.108-9.412
		c1.301-2.924,2.515-5.592,3.64-7.921c1.183-2.296,2.262-4.276,3.139-5.912c0.871-1.639,1.597-2.908,2.073-3.781
		c0.123-0.217,0.229-0.412,0.299-0.571c0.081-0.162,0.153-0.306,0.16-0.438C74.883,96.158,74.907,96.027,74.907,96.027z"/>
</g>
<g>
	<path d="M88.707,68.067c-0.003,0.033-0.381-0.345-1.192-0.499c-0.803-0.191-2.064,0.144-3.66,0.382
		c-1.604,0.265-3.549,0.603-5.786,0.929c-0.559,0.085-1.136,0.172-1.729,0.262c-0.571,0.116-1.159,0.234-1.762,0.356
		c-1.273,0.219-2.471,0.571-3.773,0.877c-2.589,0.757-5.313,1.764-8.051,3.085c-0.671,0.355-1.351,0.714-2.04,1.079
		c-0.661,0.409-1.33,0.823-2.005,1.241c-0.681,0.408-1.302,0.924-1.973,1.373l-0.496,0.35l-0.125,0.087l-0.062,0.044
		c0.013-0.01-0.074,0.053,0.021-0.017l-0.031,0.025l-0.251,0.202l-0.505,0.404l-0.253,0.203l-0.177,0.178
		c-0.979,0.878-1.785,2.147-1.718,2.702c0.014,0.207,0.067,0.362,0.415,0.689l0.134,0.116l0.032,0.031l0.016,0.016
		c0.109,0.086-0.133-0.101-0.093-0.072l0.138,0.098l0.555,0.393l0.139,0.098l0.09,0.039l0.172,0.08
		c0.125,0.052,0.193,0.124,0.366,0.175c0.585,0.261,1.245,0.393,1.933,0.487c0.708,0.049,1.447,0.054,2.228-0.029l2.613-0.394
		c0.859-0.17,1.623-0.385,2.44-0.567c3.32-0.867,6.542-2.276,9.568-3.963c1.506-0.864,2.98-1.775,4.409-2.738l0.27-0.177
		l0.135-0.088c-0.11,0.083-0.011,0.009-0.027,0.021l0.034-0.024l0.067-0.05l0.536-0.396l1.067-0.787
		c0.756-0.525,1.272-1.037,1.908-1.546c0.626-0.483,1.179-1.067,1.741-1.626l0.842-0.836l0.749-0.891l0.747-0.881l0.187-0.219
		c0.001,0.002,0.063-0.083,0.014-0.008l0.044-0.063l0.09-0.126l0.354-0.501c0.472-0.666,0.938-1.324,1.397-1.974
		c0.863-1.301,1.628-2.535,2.394-3.786c0.725-1.274,1.491-2.474,2.103-3.698c1.278-2.409,2.453-4.687,3.289-6.683
		c0.198-0.51,0.39-1.003,0.574-1.48c0.143-0.487,0.28-0.957,0.412-1.408c0.135-0.442,0.28-0.913,0.341-1.299
		c0.042-0.193,0.046-0.349,0.041-0.503l-0.025-0.217c-0.048-0.178-0.05-0.224-0.077-0.34c-0.049-0.18-0.072-0.425-0.084-0.662
		c-0.027-0.237,0.018-0.439,0.033-0.643c0.061-0.402,0.189-0.752,0.327-1.059c0.288-0.607,0.617-1.045,0.877-1.399
		c0.224-0.349,0.414-0.642,0.513-0.835c0.108-0.196,0.165-0.297,0.165-0.297s-0.033,0.112-0.098,0.33
		c-0.061,0.226-0.163,0.53-0.335,0.954c-0.346,0.748-0.982,2.021-0.445,3.326l0.101,0.249c0.043,0.13,0.087,0.261,0.131,0.394
		c0.063,0.262,0.093,0.55,0.084,0.8c0.003,0.508-0.062,0.952-0.123,1.465c-0.061,0.502-0.118,1.031-0.207,1.573
		c-0.125,0.53-0.253,1.08-0.386,1.648c-0.593,2.282-1.437,4.686-2.507,7.303c-0.49,1.325-1.142,2.651-1.75,4.056
		c-0.653,1.381-1.438,2.829-2.218,4.248c-0.407,0.684-0.82,1.376-1.238,2.078l-0.313,0.528l-0.079,0.132l-0.04,0.066l-0.078,0.115
		l-0.191,0.27c-0.259,0.36-0.518,0.723-0.778,1.087c-0.263,0.365-0.527,0.731-0.793,1.1c-0.3,0.336-0.602,0.674-0.904,1.014
		c-0.609,0.678-1.207,1.376-1.919,2.002c-0.683,0.618-1.397,1.36-2.077,1.862l-1.034,0.829l-0.521,0.417l-0.191,0.149l-0.141,0.101
		l-0.282,0.202c-0.757,0.534-1.498,1.096-2.283,1.614c-0.798,0.5-1.583,1.027-2.405,1.511c-3.276,1.958-6.884,3.564-10.724,4.597
		c-0.988,0.221-2.016,0.478-2.972,0.653l-1.371,0.2l-0.685,0.1l-0.342,0.05l-0.171,0.025l-0.147,0.018l-0.05,0.004l-0.1,0.007
		c-1.054,0.108-2.161,0.097-3.279-0.026c-1.125-0.167-2.266-0.438-3.34-0.942c-0.516-0.229-1.219-0.645-1.617-0.921l-0.544-0.406
		l-0.136-0.101c0.016,0.013-0.247-0.192-0.158-0.125l-0.046-0.042l-0.092-0.085l-0.361-0.347c-0.475-0.477-0.907-1.089-1.238-1.784
		c-0.299-0.723-0.498-1.532-0.459-2.31c-0.042-0.696,0.322-1.862,0.43-2.061l0.06-0.155l0.08-0.197l0.027-0.048l0.055-0.097
		l0.22-0.384l0.453-0.756c0.653-0.945,1.433-1.723,2.261-2.389l0.306-0.257l0.264-0.188l0.526-0.375l0.262-0.187l0.121-0.085
		l0.072-0.045l0.143-0.09l0.571-0.358c0.766-0.466,1.496-0.972,2.282-1.364c0.779-0.4,1.549-0.797,2.311-1.188
		c0.784-0.339,1.558-0.674,2.322-1.004c3.087-1.243,6.136-1.992,8.956-2.481c1.431-0.172,2.828-0.434,4.075-0.468
		c0.651-0.039,1.286-0.076,1.903-0.113c0.6-0.007,1.183-0.014,1.748-0.021c2.259-0.039,4.232-0.02,5.856-0.018
		c0.818-0.002,1.539,0.006,2.179,0.035c0.646,0.022,1.216,0.117,1.638,0.294C88.453,67.656,88.68,68.097,88.707,68.067z"/>
</g>
<g>
	<path d="M76.467,94.827c0,0-0.014-0.104-0.04-0.307c0.006-0.202,0.02-0.547,0.253-0.906c0.455-0.671,1.028-1.645,1.989-2.819
		c0.117-0.148,0.236-0.302,0.358-0.458l0.046-0.059l0.023-0.03l0.077-0.068l0.108-0.101l0.22-0.205
		c0.107-0.137,0.443-0.284,0.685-0.415c0.272-0.15,0.528-0.154,0.811-0.229c0.281-0.064,0.549-0.019,0.839-0.025
		c0.096,0.009,0.088-0.013,0.272,0.025l0.172,0.033c0.125,0.028,0.21,0.03,0.37,0.082c0.176,0.063,0.354,0.138,0.529,0.221
		c0.169,0.1,0.332,0.235,0.49,0.369c0.148,0.155,0.277,0.364,0.394,0.563c0.072,0.208,0.145,0.44,0.175,0.657
		c0.008,0.199,0.01,0.41-0.004,0.611l-0.108,0.531c-0.042,0.177-0.105,0.315-0.161,0.477l-0.088,0.236l-0.171,0.292
		c-0.155,0.241-0.22,0.445-0.532,0.765c-0.261,0.289-0.565,0.615-0.823,0.788c-1.085,0.85-2.342,1.444-3.903,1.688
		c-0.403,0.041-0.794,0.107-1.272,0.036l-0.347-0.038l-0.174-0.021l-0.087-0.012c0.193,0.046,0.036,0.01,0.072,0.02l-0.03-0.004
		l-0.241-0.034c-0.033,0.006,0.063,0.039,0.093,0.033c0.026-0.008,0.138,0.009,0.212-0.023c0.052-0.029,0.205-0.067,0.32-0.167
		c0.027-0.023,0.053-0.049,0.076-0.077l0.032-0.042c0.039-0.049-0.189,0.208-0.104,0.113l-0.081,0.094
		c-0.082,0.082-0.039,0.075-0.26,0.26c-0.363,0.313-0.716,0.477-1.057,0.59c-0.164,0.044-0.344,0.089-0.502,0.113l-0.437,0.04
		l-0.359,0.004l-0.288-0.006l-0.234-0.003l-0.056-0.001c0.217,0.006,0.042,0.003,0.082,0.005l-0.032,0.002l-0.129,0.007
		c-0.344,0.021-0.69,0.042-1.039,0.062c-0.719,0.021-1.36,0.132-2.028,0.219c-1.404,0.18-2.847,0.366-4.321,0.555
		c-1.498,0.2-3.032,0.359-4.59,0.542c-3.053,0.404-6.156,0.89-9.142,1.682c-1.473,0.43-2.937,0.904-4.311,1.535l-0.431,0.182
		l-0.555,0.288l-1.112,0.577c-0.401,0.191-0.685,0.39-0.979,0.584l-0.896,0.578c-2.465,1.634-4.409,3.858-5.617,6.424
		c-0.607,1.266-1.046,2.702-1.343,4.023c-0.061,0.376-0.178,0.841-0.192,1.14l-0.077,0.918c0.021,0.622-0.03,1.299,0.109,1.887
		c0.052,0.626,0.286,1.174,0.459,1.746c0.284,0.52,0.502,1.073,0.891,1.542c0.301,0.52,0.79,0.922,1.201,1.376l0.079,0.084
		l0.02,0.021c0.135,0.102-0.163-0.115-0.121-0.086l0.056,0.041l0.223,0.162l0.443,0.323l0.44,0.321
		c0.124,0.067,0.219,0.093,0.327,0.146c0.22,0.085,0.389,0.221,0.644,0.301c0.265,0.077,0.528,0.153,0.789,0.229
		c0.262,0.086,0.544,0.069,0.813,0.115l0.409,0.053l0.413-0.013c1.108,0.039,2.19-0.285,3.167-0.696
		c0.24-0.12,0.477-0.238,0.712-0.354l0.044-0.022l0.022-0.011c-0.02,0.017,0.076-0.052-0.039,0.034l0.095-0.064l0.188-0.13
		l0.374-0.257c0.546-0.342,0.864-0.67,1.254-0.976c0.383-0.309,0.712-0.719,1.065-1.063c0.288-0.398,0.611-0.766,0.861-1.166
		c1.013-1.596,1.596-3.231,1.914-4.622c0.072-0.28,0.129-0.698,0.149-0.979c0.004-0.293,0.04-0.573,0.006-0.851
		c-0.021-0.549-0.115-1.027-0.189-1.4c-0.082-0.354-0.28-0.565-0.472-0.623c-0.184-0.068-0.298-0.057-0.295-0.065
		c0,0.009,0.103-0.03,0.313-0.008c0.214,0.005,0.545,0.2,0.725,0.601c0.164,0.371,0.36,0.82,0.514,1.396
		c0.096,0.278,0.14,0.612,0.199,0.969c0.035,0.368,0.054,0.646,0.037,1.09c-0.061,1.504-0.313,3.388-1.216,5.402
		c-0.217,0.505-0.518,0.992-0.794,1.517c-0.35,0.479-0.652,0.999-1.087,1.49c-0.43,0.49-0.917,1.022-1.354,1.375l-0.34,0.301
		l-0.172,0.151l-0.086,0.075l-0.17,0.119c-0.293,0.196-0.59,0.395-0.89,0.596c-1.24,0.725-2.668,1.341-4.276,1.508l-0.602,0.084
		l-0.617-0.007c-0.413-0.022-0.835,0.012-1.253-0.069c-0.419-0.081-0.842-0.163-1.268-0.245c-0.429-0.099-0.894-0.314-1.342-0.489
		c-0.22-0.093-0.465-0.192-0.662-0.29l-0.467-0.282l-0.47-0.283l-0.236-0.142l-0.059-0.036c0.022,0.018-0.294-0.213-0.175-0.128
		l-0.031-0.026l-0.124-0.104c-0.648-0.569-1.354-1.091-1.913-1.825c-0.634-0.659-1.091-1.482-1.561-2.307
		c-0.364-0.866-0.757-1.759-0.918-2.695c-0.251-0.937-0.279-1.86-0.326-2.823c0.022-0.49,0.045-0.981,0.067-1.475
		c0.026-0.503,0.104-0.825,0.154-1.248c0.307-1.845,0.778-3.568,1.55-5.297c0.091-0.215,0.172-0.435,0.272-0.646l0.345-0.616
		l0.701-1.232c0.478-0.817,1.114-1.532,1.681-2.294c0.64-0.693,1.31-1.368,1.992-2.017c0.74-0.578,1.43-1.198,2.226-1.729
		l1.221-0.769c0.41-0.258,0.825-0.519,1.183-0.683l1.117-0.567l0.558-0.283l0.167-0.082l0.079-0.033l0.157-0.066l0.314-0.131
		c1.662-0.753,3.391-1.232,5.088-1.685c3.408-0.812,6.754-1.164,9.938-1.394c1.568-0.078,3.108-0.175,4.619-0.226
		c1.534-0.063,3.036-0.124,4.497-0.183c0.765-0.03,1.536-0.08,2.215-0.04c0.349,0.009,0.696,0.019,1.04,0.028l0.129,0.003L73.935,94
		l0.072,0.008l0.277,0.036l0.371,0.053c0.03,0.002,0.045,0.004,0.069,0.012c0.008,0.002-0.009,0.004-0.008,0.018
		c-0.01,0.008-0.039,0.014-0.05,0.035c-0.017,0.018-0.094,0.056-0.12,0.105c-0.074,0.104,0.067-0.044,0.106-0.074l0.092-0.083
		c0.1-0.109-0.116,0.131-0.059,0.071l0.081-0.08l0.174-0.153c0.245-0.201,0.519-0.356,0.742-0.403
		c0.233-0.065,0.5-0.124,0.691-0.108c0.192,0.001,0.453,0.025,0.58,0.051l0.235,0.062l0.389,0.085
		c0.153,0.071,0.397,0.053,0.62,0.063c0.936-0.005,1.978-0.356,2.765-0.802c0.242-0.113,0.322-0.208,0.475-0.292
		c0.136-0.025,0.331-0.318,0.498-0.511l0.064-0.079l0.032-0.039l0.017-0.02c0.066-0.109-0.071,0.126-0.055,0.097l0.072-0.132
		c0.045-0.085,0.112-0.181,0.141-0.257c0.028-0.075,0.06-0.15,0.095-0.225c0.008-0.056,0.017-0.103,0.039-0.158
		c-0.001-0.034-0.004-0.046,0.017-0.083c-0.021-0.009-0.003-0.029-0.011-0.06c-0.032-0.022-0.047-0.06-0.075-0.097
		c-0.043-0.022-0.08-0.053-0.118-0.094c-0.059-0.041-0.209-0.08-0.308-0.12l-0.165-0.059c0.071,0.014-0.054-0.008-0.071-0.013
		c-0.167-0.021-0.349-0.103-0.504-0.088c-0.144,0.02-0.345-0.022-0.452,0.028c-0.061,0.018-0.123,0.031-0.188,0.042l-0.102,0.016
		l-0.129,0.08l-0.254,0.161l-0.125,0.079l-0.015,0.01c0.017-0.016-0.06,0.049,0.034-0.032l-0.026,0.023l-0.053,0.046
		c-0.141,0.125-0.278,0.246-0.412,0.364c-1.08,0.927-1.927,1.77-2.473,2.304C76.387,94.331,76.496,94.848,76.467,94.827z"/>
</g>
<g>
	<path d="M116.907,53.667c0,0,0.237-0.039,0.682-0.112c0.414-0.093,1.009-0.334,1.481-0.853c0.506-0.516,0.717-1.351,1.163-2.471
		c0.211-0.543,0.426-1.12,0.628-1.715c0.214-0.598,0.459-1.213,0.622-1.855c0.097-0.316,0.195-0.64,0.296-0.969
		c0.08-0.329,0.123-0.663,0.188-0.999c0.048-0.315,0.153-0.719,0.175-0.964c0.04-0.393,0.079-0.792,0.12-1.197
		c0.065-1.315-0.146-2.688-0.733-3.71c-0.065-0.046-0.189-0.176-0.301-0.245c-0.104-0.065-0.202-0.091-0.338-0.117
		c-0.086,0.009-0.146-0.018-0.24-0.02c-0.111,0.02-0.22,0.03-0.328,0.032c-0.229,0.054-0.59,0.102-0.779,0.186
		c-0.426,0.151-0.95,0.313-1.131,0.453l-0.398,0.202l-0.462,0.287c-0.62,0.376-1.203,0.877-1.77,1.429
		c-0.566,0.565-1.126,1.166-1.651,1.854l-0.2,0.25l-0.024,0.031l-0.013,0.016c-0.018,0.024,0.108-0.151,0.049-0.068l-0.05,0.072
		l-0.102,0.145l-0.409,0.57l-0.82,1.134c-0.304,0.388-0.448,0.718-0.67,1.072c-0.214,0.344-0.426,0.687-0.637,1.028
		c-0.42,0.689-0.722,1.468-1.108,2.175c-0.38,0.719-0.559,1.487-0.871,2.205l-0.212,0.543l-0.013,0.034
		c0.049-0.252,0.011-0.059,0.021-0.11l-0.005,0.019l-0.018,0.077l-0.036,0.153l-0.072,0.306l-0.143,0.603
		c-0.013,0.148-0.035,0.294-0.057,0.441l-0.07,0.446l-0.025,0.528c-0.026,0.346-0.027,0.701-0.021,1.064l0.001,0.534v0.066
		c0.009,0.052-0.081-0.397-0.041-0.199l0.003,0.017l0.006,0.035l0.023,0.139l0.047,0.274l0.047,0.271
		c0.02,0.016,0.034,0.033,0.045,0.052c0.028,0.039,0.01,0.083,0.036,0.16c0.409,0.741,1.323,1.313,2.223,1.411
		c0.115,0.017,0.229,0.035,0.341,0.051c0.113-0.01,0.225-0.021,0.334-0.03c0.215-0.032,0.455-0.012,0.653-0.062
		c0.495-0.114,0.95-0.215,1.298-0.344c0.375-0.107,0.701-0.248,0.989-0.376c0.298-0.116,0.539-0.239,0.721-0.361
		c0.39-0.226,0.598-0.346,0.598-0.346s-0.143,0.196-0.409,0.563c-0.133,0.193-0.317,0.408-0.563,0.638
		c-0.231,0.249-0.518,0.517-0.888,0.771c-0.366,0.29-0.762,0.527-1.188,0.792c-0.253,0.166-0.537,0.246-0.836,0.367
		c-0.151,0.055-0.306,0.111-0.462,0.168c-0.166,0.026-0.335,0.053-0.507,0.081c-1.366,0.228-3.185-0.076-4.595-1.546
		c-0.183-0.206-0.359-0.487-0.52-0.755l-0.23-0.418l-0.102-0.259l-0.101-0.26l-0.051-0.131l-0.013-0.033l-0.006-0.017
		c0.036,0.187-0.058-0.273-0.05-0.233l-0.015-0.073c-0.041-0.196-0.082-0.395-0.123-0.594c-0.093-0.394-0.154-0.812-0.202-1.254
		l-0.08-0.662c-0.008-0.252-0.015-0.505-0.022-0.761c-0.001-0.259-0.002-0.521-0.002-0.783l0.057-0.621l0.029-0.313l0.014-0.157
		l0.008-0.079l0.002-0.02c0.012-0.064-0.025,0.116,0.027-0.149l0.01-0.042l0.152-0.674c0.107-0.452,0.216-0.91,0.325-1.372
		c0.115-0.461,0.216-0.936,0.402-1.378c0.346-0.901,0.646-1.829,1.098-2.737c0.46-0.883,0.94-1.885,1.453-2.68l0.765-1.171
		l0.386-0.587l0.099-0.146l0.168-0.235l0.234-0.304c0.605-0.814,1.31-1.621,2.075-2.392c0.794-0.752,1.663-1.476,2.656-2.067
		l0.747-0.437c0.28-0.135,0.583-0.263,0.875-0.389c0.652-0.294,1.034-0.371,1.489-0.512l0.167-0.05l0.084-0.024l0.16-0.046
		l0.029-0.005l0.06-0.011l0.474-0.082c0.324-0.043,0.614-0.12,0.965-0.12c0.351,0,0.702,0.009,1.048,0.027
		c0.359,0.041,0.743,0.141,1.104,0.229c0.735,0.227,1.46,0.617,2.037,1.139c0.57,0.513,0.995,1.104,1.347,1.837
		c0.916,2.193,0.835,4.391,0.42,6.265c-0.108,0.393-0.216,0.78-0.32,1.161c-0.147,0.523-0.306,0.853-0.464,1.272
		c-0.162,0.392-0.305,0.787-0.477,1.149c-0.19,0.347-0.378,0.688-0.562,1.021c-0.362,0.674-0.745,1.261-1.131,1.806
		c-0.381,0.556-0.745,1.057-1.091,1.52c-0.645,0.885-1.354,1.912-2.24,2.354c-0.864,0.481-1.634,0.41-2.087,0.35
		C117.135,53.746,116.907,53.667,116.907,53.667z"/>
</g>
<g>
	<path d="M111.147,91.947c0,0.01-0.074-0.052-0.22-0.066c-0.147-0.023-0.323,0.074-0.563,0.258c-0.241,0.179-0.539,0.4-0.889,0.66
		c-0.349,0.262-0.772,0.551-1.129,0.942c-0.377,0.38-0.81,0.744-1.178,1.286c-0.194,0.255-0.395,0.516-0.609,0.777
		c-0.188,0.286-0.36,0.599-0.549,0.908c-0.093,0.155-0.187,0.312-0.282,0.472l-0.072,0.119c0.006-0.003-0.036,0.078-0.053,0.113
		l-0.135,0.277c-0.181,0.373-0.367,0.756-0.559,1.149c-0.379,0.788-0.832,1.598-1.19,2.451c-0.782,1.679-1.562,3.565-2.406,5.555
		c-0.405,0.994-0.822,2.015-1.248,3.059c-0.425,1.068-0.859,2.159-1.301,3.27c-0.224,0.553-0.449,1.111-0.677,1.674
		c-0.192,0.551-0.387,1.105-0.583,1.664c-0.389,1.117-0.786,2.236-1.206,3.371c-0.775,2.376-1.563,4.789-2.352,7.202
		c-0.412,1.197-0.809,2.393-1.164,3.581c-0.347,1.191-0.789,2.365-1.097,3.543c-0.317,1.177-0.645,2.341-0.98,3.491l-0.062,0.216
		l-0.031,0.107l-0.008,0.026c0.04-0.196,0.008-0.038,0.015-0.074l-0.011,0.056l-0.093,0.449l-0.185,0.895
		c-0.118,0.594-0.14,1.029-0.226,1.55c-0.113,1.053-0.142,2.169-0.155,3.257l-0.005,0.204c-0.052-0.455-0.013-0.111-0.023-0.206
		l0.003,0.027l0.007,0.053l0.012,0.107l0.049,0.425c0.01,0.057,0.015,0.172,0.027,0.181c0.012,0.004,0.021,0.008,0.027,0.013
		c0.013,0.01,0.014,0.022,0.005,0.045c0.007,0.059,0.112,0.177,0.143,0.285c0.096,0.083,0.167,0.188,0.262,0.289
		c0.421,0.377,1.119,0.606,1.841,0.635c0.031-0.002-0.214,0.025-0.099,0.013l0.024-0.002l0.048-0.003l0.097-0.007l0.191-0.013
		l0.382-0.026c0.169-0.031,0.274-0.061,0.425-0.074l0.507-0.164c0.171-0.081,0.339-0.161,0.506-0.241
		c0.675-0.365,1.306-0.925,1.946-1.486c0.602-0.542,1.269-1.143,1.753-1.655c0.541-0.51,0.963-1.065,1.411-1.545
		c0.419-0.517,0.734-0.957,1.112-1.458c0.148-0.21,0.372-0.451,0.592-0.659c0.23-0.173,0.443-0.324,0.669-0.418
		c0.436-0.214,0.837-0.266,1.146-0.296c0.627-0.028,0.938,0.079,0.939,0.06c0,0-0.079,0.016-0.232,0.046
		c-0.153,0.021-0.374,0.088-0.648,0.176c-0.547,0.195-1.261,0.659-1.612,1.604c-0.195,0.455-0.454,1.108-0.747,1.729
		c-0.323,0.618-0.682,1.291-1.144,1.968c-0.457,0.723-0.912,1.336-1.469,2.093c-0.544,0.708-1.187,1.483-2.088,2.207
		c-1.816,1.469-4.841,2.298-7.691,0.613c-0.339-0.228-0.67-0.504-0.984-0.79c-0.278-0.351-0.562-0.649-0.802-1.092
		c-0.117-0.236-0.226-0.482-0.322-0.733l-0.137-0.378c-0.04-0.122-0.038-0.153-0.059-0.234l-0.093-0.418l-0.023-0.104l-0.012-0.053
		l-0.006-0.026c-0.014-0.112,0.021,0.215-0.031-0.259l-0.02-0.226c-0.123-1.207-0.169-2.441-0.144-3.771
		c0.056-2.831,0.744-5.156,1.324-7.686c0.291-1.258,0.676-2.476,1.037-3.719c0.358-1.246,0.746-2.474,1.154-3.688
		c0.819-2.442,1.652-4.842,2.514-7.196c0.479-1.206,0.979-2.405,1.474-3.58c0.247-0.588,0.492-1.172,0.736-1.753
		c0.27-0.543,0.537-1.083,0.802-1.618c0.537-1.067,1.065-2.117,1.583-3.145c0.558-1.033,1.104-2.044,1.635-3.027
		c0.553-0.964,1.103-1.902,1.646-2.796c0.542-0.895,1.141-1.752,1.672-2.572c0.535-0.835,1.074-1.565,1.607-2.261
		c0.266-0.347,0.524-0.685,0.777-1.014l0.188-0.245l0.108-0.144l0.109-0.121c0.146-0.16,0.288-0.317,0.429-0.472
		c0.284-0.306,0.546-0.608,0.818-0.881c0.297-0.252,0.589-0.487,0.868-0.708c0.527-0.468,1.137-0.781,1.642-1.081
		c0.502-0.327,0.968-0.491,1.381-0.639c0.411-0.153,0.761-0.283,1.045-0.388c0.271-0.115,0.563-0.164,0.718-0.077
		C111.101,91.88,111.14,91.954,111.147,91.947z"/>
</g>
<g>
	<path d="M114.267,140.187c0,0,0.247-0.025,0.691-0.103c0.422-0.081,1.025-0.327,1.51-0.848c0.509-0.538,0.748-1.371,1.209-2.504
		c0.217-0.546,0.459-1.133,0.638-1.731c0.178-0.607,0.456-1.205,0.607-1.87c0.149-0.661,0.394-1.326,0.506-2.028
		c0.054-0.348,0.107-0.701,0.163-1.061l0.088-0.536l0.022-0.135l0.011-0.067l0.003-0.017c0.005-0.028-0.029,0.185-0.015,0.086
		l0.002-0.039l0.013-0.308c0.018-0.414,0.052-0.862-0.002-1.118l-0.037-0.452l-0.094-0.515c-0.044-0.348-0.15-0.687-0.244-1.027
		l-0.068-0.256l-0.008-0.032c0.034,0.105-0.084-0.26,0.076,0.232l-0.009-0.02l-0.034-0.075l-0.069-0.152l-0.138-0.305l-0.069-0.152
		c-0.023-0.05-0.05-0.12-0.061-0.09c-0.056,0.026-0.072,0.052-0.064,0.048c-0.013-0.011-0.128-0.047-0.163-0.089
		c-0.035-0.063-0.146-0.055-0.212-0.09c-0.037-0.015-0.072-0.033-0.107-0.055l-0.149-0.009c-0.174-0.061-0.421-0.01-0.646-0.023
		c-0.255,0.083-0.506,0.067-0.775,0.205l-0.201,0.071l-0.102,0.033c0.074-0.035-0.185,0.083,0.163-0.077l-0.02,0.011l-0.039,0.021
		l-0.077,0.043l-0.623,0.342c-0.41,0.228-0.888,0.461-1.082,0.666c-0.266,0.226-0.521,0.37-0.816,0.633l-0.904,0.841
		c-0.301,0.295-0.596,0.627-0.896,0.937l-0.224,0.236l-0.056,0.059c-0.093,0.112,0.11-0.137,0.084-0.104l-0.014,0.018l-0.027,0.035
		l-0.11,0.142l-0.44,0.563l-0.886,1.118l-0.44,0.551l-0.315,0.519l-0.64,1.026c-0.22,0.339-0.456,0.655-0.635,1.055
		c-0.389,0.763-0.771,1.517-1.148,2.257c-0.325,0.775-0.63,1.546-0.964,2.293c-0.098,0.173-0.313,0.85-0.351,1.029
		c-0.086,0.26-0.131,0.589-0.196,0.906c-0.084,0.631-0.064,1.233,0.017,1.802c0.073,0.267,0.108,0.557,0.227,0.8l0.071,0.192
		l0.035,0.098c-0.028-0.039,0.069,0.104-0.063-0.085l0.009,0.015l0.019,0.03l0.035,0.059l0.281,0.47
		c0.191,0.296,0.48,0.605,0.869,0.808c0.397,0.175,0.878,0.286,1.379,0.274c0.502,0.016,0.993-0.095,1.467-0.153l0.044-0.007
		l0.022-0.003c0.019-0.007-0.122,0.056-0.057,0.027l0.011-0.003l0.09-0.03l0.176-0.058c0.116-0.038,0.23-0.075,0.342-0.111
		c0.234-0.068,0.427-0.146,0.587-0.234c0.369-0.175,0.699-0.33,0.985-0.466c0.304-0.145,0.562-0.265,0.798-0.322
		c0.444-0.123,0.682-0.188,0.682-0.188s-0.188,0.153-0.542,0.44c-0.178,0.122-0.369,0.325-0.592,0.564
		c-0.211,0.23-0.486,0.508-0.832,0.832c-0.17,0.173-0.352,0.325-0.539,0.454c-0.094,0.07-0.189,0.142-0.288,0.215l-0.149,0.111
		l-0.075,0.057l-0.156,0.079c-0.486,0.254-1.025,0.509-1.684,0.687c-0.646,0.192-1.427,0.283-2.303,0.166
		c-0.879-0.153-1.772-0.618-2.543-1.388l-0.374-0.398l-0.047-0.051l-0.023-0.025l-0.012-0.013l-0.08-0.114l-0.098-0.146
		l-0.195-0.297c-0.282-0.393-0.464-0.838-0.676-1.289c-0.349-0.92-0.535-1.916-0.58-2.932c0-0.502,0.003-1.006,0.09-1.574
		c0.092-0.653,0.11-0.803,0.276-1.45c0.236-0.883,0.514-1.777,0.781-2.695c0.312-0.906,0.717-1.804,1.093-2.725
		c0.369-0.92,0.974-1.854,1.49-2.781l0.407-0.698l0.42-0.579l0.854-1.143l0.432-0.57l0.107-0.143l0.155-0.191l0.065-0.072
		l0.264-0.289c0.358-0.383,0.693-0.774,1.074-1.15l1.214-1.094c0.424-0.364,0.983-0.729,1.479-1.076
		c0.547-0.404,0.941-0.563,1.371-0.775l0.638-0.313l0.345-0.16l0.234-0.077l0.472-0.148c0.608-0.223,1.308-0.281,1.972-0.354
		c0.707,0.027,1.396,0.044,2.109,0.28l0.522,0.153l0.511,0.251c0.334,0.183,0.675,0.331,0.962,0.603
		c0.299,0.264,0.578,0.476,0.848,0.815c0.271,0.364,0.516,0.756,0.722,1.146c0.065,0.116,0.071,0.155,0.09,0.209l0.053,0.159
		l0.104,0.318l0.053,0.158l0.025,0.079l0.007,0.02c0.164,0.505,0.048,0.154,0.085,0.273l0.009,0.049l0.063,0.393
		c0.091,0.521,0.163,1.037,0.163,1.555l0.021,0.768l-0.055,0.821c-0.027,0.591-0.121,0.967-0.209,1.368l-0.063,0.302l-0.009,0.038
		c0.014-0.087-0.022,0.139-0.021,0.123l-0.006,0.02l-0.027,0.081l-0.053,0.16l-0.213,0.633c-0.144,0.415-0.285,0.823-0.425,1.225
		c-0.303,0.787-0.701,1.483-1.037,2.171c-0.742,1.328-1.53,2.496-2.239,3.406c-0.658,0.897-1.398,1.912-2.276,2.368
		c-0.878,0.483-1.658,0.416-2.117,0.344C114.497,140.273,114.267,140.187,114.267,140.187z"/>
</g>
<g>
	<path d="M183.867,132.387c0.032,0.022-0.414-0.04-0.618,0.442c-0.183,0.49-0.385,1.348-0.715,2.349
		c-0.353,1.009-0.694,2.278-1.356,3.66c-0.155,0.351-0.315,0.714-0.481,1.087c-0.203,0.36-0.412,0.732-0.627,1.113
		c-0.222,0.387-0.433,0.77-0.708,1.174c-0.247,0.355-0.494,0.717-0.815,1.119c-1.172,1.544-2.873,3.217-5.252,4.105l-0.218,0.089
		l-0.055,0.021c0.071-0.018-0.129,0.037-0.116,0.034l-0.023,0.007l-0.094,0.029l-0.377,0.116c-0.14,0.037-0.222,0.076-0.411,0.111
		l-0.542,0.102c-0.739,0.131-1.4,0.154-2.156,0.094c-1.479-0.094-3.064-0.796-4.243-1.926c-2.397-2.316-2.804-5.785-2.447-8.347
		c0.415-3.129,1.734-5.439,2.896-7.607l0.44-0.786l0.503-0.846c0.274-0.488,0.706-1.102,1.103-1.675
		c0.803-1.11,1.682-2.109,2.661-3.026c0.951-0.939,2.028-1.729,3.123-2.439c0.571-0.364,1.075-0.63,1.731-0.997l0.389-0.188
		l0.576-0.24c0.387-0.14,0.759-0.259,1.193-0.34c0.845-0.169,1.844-0.155,2.749,0.138c0.221,0.079,0.438,0.164,0.652,0.254
		c-0.211-0.114,0.333,0.175,0.283,0.15l0.021,0.014l0.043,0.029l0.085,0.059l0.171,0.117l0.097,0.07l0.204,0.174
		c0.134,0.12,0.264,0.248,0.385,0.381c0.114,0.128,0.253,0.284,0.322,0.397l0.19,0.335c0.505,0.914,0.599,1.788,0.585,2.561
		c-0.009,0.391-0.043,0.768-0.124,1.115c-0.056,0.362-0.168,0.689-0.281,1.013l-0.084,0.241l-0.021,0.061l-0.065,0.168l-0.011,0.021
		l-0.046,0.086l-0.18,0.342c-0.119,0.227-0.237,0.452-0.354,0.676c-0.063,0.114-0.111,0.22-0.183,0.339l-0.264,0.386
		c-0.175,0.256-0.355,0.505-0.536,0.747c-0.351,0.521-0.746,0.851-1.113,1.24c-0.36,0.392-0.751,0.717-1.141,1.021
		c-0.192,0.155-0.382,0.309-0.57,0.46l-0.188,0.15l-0.138,0.091l-0.274,0.181c-0.188,0.12-0.35,0.235-0.553,0.355
		c-0.215,0.117-0.428,0.232-0.637,0.347c-0.837,0.435-1.608,0.71-2.354,0.96c-1.484,0.481-2.796,0.665-3.859,0.819
		c-0.133,0.019-0.263,0.037-0.389,0.055c-0.205,0.038-0.271,0.018-0.406,0.029c-0.269-0.002-0.579-0.055-0.775-0.127
		c-0.43-0.146-0.744-0.322-0.995-0.462c-0.5-0.279-0.767-0.429-0.767-0.429s0.308,0.037,0.867,0.159
		c0.278,0.061,0.623,0.129,0.999,0.137c0.377,0.009,0.674-0.088,1.203-0.322c0.973-0.409,2.14-0.929,3.362-1.615
		c0.596-0.354,1.239-0.762,1.79-1.225c0.136-0.111,0.273-0.225,0.413-0.339c0.146-0.12,0.311-0.284,0.468-0.427l0.24-0.223
		l0.121-0.113c-0.06,0.039,0.041-0.056,0.055-0.076l0.407-0.465c0.281-0.306,0.556-0.623,0.776-0.977
		c0.226-0.343,0.522-0.691,0.651-1.029c0.083-0.169,0.168-0.335,0.262-0.497l0.14-0.243c0.045-0.102,0.087-0.231,0.131-0.347
		c0.087-0.237,0.174-0.477,0.262-0.718l0.133-0.362l0.033-0.091l0.009-0.023c-0.107,0.271-0.028,0.065-0.052,0.122l0.005-0.033
		l0.022-0.133c0.034-0.175,0.068-0.35,0.066-0.513c0.024-0.17,0.01-0.322-0.007-0.466c0.008-0.159-0.066-0.248-0.076-0.369
		c-0.057-0.066-0.076-0.17-0.116-0.164c-0.007-0.006-0.011-0.012-0.014-0.021c-0.001-0.003,0.028,0.065,0.053,0.089
		c0.028,0.033,0.063,0.062,0.104,0.081c0.021,0.011,0.042,0.019,0.063,0.024c0-0.004-0.052-0.029-0.076-0.044l-0.18-0.102
		l-0.091-0.051l-0.045-0.025l-0.022-0.013c-0.063-0.035,0.463,0.248,0.236,0.128c-0.047-0.003-0.09-0.011-0.132-0.025
		c-0.166-0.016-0.32-0.004-0.579,0.075c-0.121,0.033-0.284,0.107-0.43,0.175l-0.207,0.107l-0.376,0.211
		c-0.326,0.229-0.837,0.529-1.228,0.821c-0.402,0.319-0.83,0.607-1.204,0.967c-0.399,0.327-0.778,0.683-1.139,1.061
		c-0.736,0.729-1.397,1.581-2.004,2.419c-0.278,0.423-0.556,0.788-0.868,1.355l-0.416,0.716l-0.438,0.798
		c-0.577,1.039-1.141,2.038-1.559,2.999c-0.198,0.481-0.411,0.955-0.553,1.42l-0.215,0.692c-0.036,0.196-0.079,0.391-0.127,0.585
		c-0.061,0.15-0.073,0.501-0.101,0.785l-0.037,0.442l-0.019,0.221c-0.005,0.137,0.005-0.156,0.004-0.119v0.021l0.001,0.042v0.084
		c-0.008,0.448,0.013,0.887,0.088,1.287c0.145,0.804,0.428,1.497,0.844,1.971c0.417,0.475,0.941,0.809,1.634,0.95
		c0.325,0.071,0.752,0.104,1.067,0.085l0.247-0.004c0.074,0.006,0.245-0.039,0.361-0.056l0.389-0.067l0.097-0.017l0.024-0.005
		c0.028-0.006-0.157,0.043-0.07,0.02l0.038-0.01l0.149-0.041c1.607-0.372,3.048-1.304,4.273-2.444
		c0.297-0.26,0.613-0.585,0.918-0.897c0.264-0.274,0.516-0.604,0.779-0.885c0.262-0.293,0.517-0.579,0.764-0.857
		c0.223-0.307,0.438-0.604,0.647-0.893c0.432-0.57,0.808-1.133,1.152-1.666c0.347-0.53,0.68-1.006,0.958-1.463
		c0.57-0.911,1.006-1.591,1.374-2.09c0.206-0.255,0.482-0.319,0.633-0.313C183.791,132.377,183.867,132.387,183.867,132.387z"/>
</g>
<g>
	<path d="M65.307,120.747c0,0,0.116-0.018,0.334-0.051c0.216-0.007,0.544-0.086,0.88-0.164c0.354-0.085,0.789-0.229,1.276-0.377
		c0.555-0.146,1.122-0.29,1.772-0.427c1.286-0.272,2.785-0.499,4.386-0.633c0.801-0.069,1.628-0.119,2.468-0.135
		c0.845-0.015,1.709,0.041,2.569,0.078c0.86,0.068,1.721,0.127,2.565,0.236c0.845,0.091,1.674,0.226,2.474,0.365
		c0.769,0.151,1.511,0.297,2.215,0.436c0.726,0.146,1.413,0.308,2.072,0.479c0.323,0.091,0.633,0.179,0.928,0.262
		c0.146,0.046,0.288,0.09,0.426,0.133l0.052,0.017l0.025,0.008c0.038,0.005-0.075-0.009,0.086,0.012l0.006,0.003l0.012,0.005
		l0.096,0.045l0.186,0.093c0.492,0.252,0.899,0.444,1.265,0.707c0.71,0.502,1.027,0.829,1.027,0.829s-0.498,0.079-1.214,0.148
		c-0.342,0.018-0.851,0.162-1.377,0.224c-0.495,0.122-1.054,0.26-1.663,0.41c-0.618,0.14-1.314,0.272-2.054,0.39
		c-0.184,0.027-0.37,0.055-0.559,0.082l-0.285,0.038l-0.072,0.01l-0.035,0.005l-0.01,0.002c-0.164-0.009-0.051-0.002-0.089-0.004
		l-0.019,0.002l-0.144,0.013c-0.384,0.043-0.774,0.052-1.172,0.079c-0.794,0.039-1.612,0.069-2.441,0.054
		c-0.83,0.003-1.669-0.046-2.509-0.086c-0.84-0.064-1.675-0.135-2.505-0.231c-0.837-0.068-1.66-0.169-2.455-0.287
		c-1.591-0.232-3.073-0.552-4.341-0.903c-0.627-0.177-1.23-0.357-1.713-0.534c-0.55-0.167-1.02-0.375-1.403-0.567
		c-0.402-0.192-0.645-0.398-0.807-0.539C65.395,120.825,65.307,120.747,65.307,120.747z"/>
</g>
<g>
	<path d="M60.027,2.547c-0.011,0.007,0.068,0.087,0.097,0.309c0.025,0.255-0.104,0.613-0.196,0.931
		c-0.101,0.348-0.258,0.791-0.385,1.245c-0.135,0.447-0.286,0.95-0.452,1.5c-0.149,0.542-0.316,1.108-0.442,1.698
		c-0.142,0.584-0.259,1.188-0.342,1.801c-0.05,0.305-0.085,0.614-0.113,0.925l-0.024,0.233l-0.013,0.116l-0.003,0.029l-0.002,0.015
		c-0.018,0.125,0.023-0.162,0.02-0.129l0,0.009l-0.001,0.072l-0.032,0.575c-0.016,0.362-0.063,0.824-0.053,1.112
		c0.019,0.281,0.03,0.56,0.034,0.839c-0.013,0.277,0.057,0.612,0.076,0.916c0.017,0.155,0.028,0.311,0.036,0.468l0.084,0.46
		c0.072,0.303,0.076,0.62,0.162,0.921c0.078,0.303,0.158,0.603,0.213,0.912c0.065,0.307,0.196,0.59,0.267,0.894
		c0.075,0.303,0.169,0.594,0.281,0.878c0.2,0.576,0.387,1.145,0.611,1.663c0.05,0.134,0.099,0.265,0.147,0.393l0.072,0.191
		l0.035,0.095l0.017,0.048l0.008,0.024c0.024,0.027-0.205-0.217-0.106-0.111l0.003,0.006l0.006,0.011
		c0.138,0.244,0.268,0.476,0.391,0.693c0.083,0.125,0.175,0.252,0.261,0.406c0.093,0.152,0.263,0.298,0.374,0.428
		c0.245,0.25,0.449,0.508,0.577,0.655c0.125,0.162,0.192,0.248,0.192,0.248s-0.11,0.004-0.318,0.011
		c-0.204-0.006-0.486,0.021-0.866-0.009c-0.196-0.02-0.385-0.004-0.648-0.059c-0.27-0.054-0.563-0.152-0.891-0.269
		c-0.227-0.106-0.469-0.218-0.724-0.337l-0.012-0.005l-0.006-0.003c0.096,0.103-0.137-0.144-0.115-0.12l-0.022-0.016l-0.045-0.033
		l-0.089-0.068l-0.179-0.14c-0.122-0.095-0.247-0.193-0.374-0.293c-0.25-0.206-0.516-0.418-0.77-0.663
		c-0.249-0.25-0.492-0.523-0.752-0.802c-0.517-0.555-0.958-1.249-1.402-1.973c-0.392-0.76-0.795-1.564-1.019-2.46
		c-0.142-0.438-0.266-0.886-0.309-1.353c-0.055-0.471-0.156-0.907-0.162-1.413l0.028-1.503c0.015-0.491,0.12-0.797,0.174-1.2
		l0.102-0.567l0.015-0.07l0.024-0.155l0.006-0.02l0.012-0.041l0.048-0.162l0.097-0.322c0.123-0.428,0.256-0.845,0.444-1.235
		c0.17-0.396,0.334-0.781,0.555-1.129c0.205-0.354,0.396-0.701,0.635-1.004c0.437-0.632,0.924-1.159,1.385-1.618
		c0.472-0.447,0.929-0.828,1.368-1.133c0.423-0.325,0.819-0.505,1.14-0.696c0.335-0.211,0.576-0.264,0.688-0.375
		C59.977,2.662,60.022,2.537,60.027,2.547z"/>
</g>
<g>
	<path d="M131.546,46.287c0,0-0.004,0.494-0.103,1.313c-0.054,0.407-0.107,0.908-0.197,1.462c-0.096,0.56-0.19,1.162-0.371,1.848
		c-0.18,0.68-0.357,1.411-0.679,2.182c-0.299,0.78-0.643,1.584-1.069,2.334c-0.445,0.822-0.977,1.615-1.627,2.407
		c-0.659,0.79-1.464,1.526-2.377,2.169c-0.232,0.153-0.482,0.288-0.724,0.43l-0.183,0.104l-0.092,0.052l-0.045,0.026l-0.023,0.013
		l-0.253,0.117l-0.31,0.119c-0.205,0.081-0.411,0.16-0.619,0.229c-0.354,0.091-0.761,0.17-1.141,0.228
		c-0.192,0.028-0.388,0.055-0.573,0.07l-0.49-0.018c-0.325-0.028-0.651-0.042-0.961-0.102c-0.609-0.155-1.217-0.296-1.729-0.594
		c-1.068-0.505-1.901-1.264-2.521-2.122l-0.221-0.328l-0.105-0.162l-0.159-0.246l-0.024-0.066l-0.153-0.398
		c-0.102-0.278-0.187-0.632-0.169-0.842c-0.001-0.24,0.016-0.476,0.076-0.677l0.041-0.154l0.023-0.076l0.012-0.038l0.006-0.019
		c-0.01,0.043,0.03-0.124-0.021,0.093l0.052-0.123c0.071-0.162,0.141-0.321,0.209-0.478c0.322-0.661,0.45-1.078,0.665-1.559
		c0.187-0.522,0.35-0.978,0.484-1.353c0.275-0.782,0.491-1.222,0.491-1.222s0.221,0.446,0.503,1.215
		c0.132,0.394,0.311,0.866,0.452,1.444c0.114,0.593,0.244,1.404,0.247,2.039c0.004,0.17,0.009,0.344,0.014,0.521l0.003,0.133
		c-0.052,0.222-0.013,0.06-0.023,0.109l0.003-0.003l0.007-0.005l0.012-0.011l0.02-0.024c0.014-0.029,0.051-0.086,0.06-0.147
		c0.006-0.027,0.015-0.215-0.045-0.317l-0.037-0.072l0.046,0.053l0.092,0.106l0.047,0.053l0.006,0.007
		c0.103,0.153-0.133-0.201-0.107-0.164l0.011,0.006l0.021,0.012l0.08,0.048l0.156,0.096c0.406,0.257,0.907,0.476,1.396,0.553
		c0.241,0.07,0.479,0.045,0.703,0.077c0.112-0.002,0.22-0.04,0.326-0.047l0.159-0.003c0.029-0.015,0.047-0.032,0.07-0.041
		c0.048-0.023,0.075-0.011,0.15-0.011c0.198-0.096,0.401-0.182,0.604-0.267l0.305-0.13l0.01-0.004
		c0.212-0.098-0.277,0.129-0.225,0.104l0.013-0.009l0.025-0.017l0.051-0.033l0.103-0.066l0.413-0.259
		c0.548-0.364,1.069-0.813,1.602-1.299c0.51-0.512,1.05-1.064,1.538-1.618c0.243-0.25,0.54-0.646,0.774-0.883
		c0.238-0.284,0.46-0.571,0.702-0.839c0.482-0.525,0.914-1.101,1.348-1.601c0.436-0.492,0.847-1,1.228-1.409
		c0.374-0.422,0.74-0.764,1.034-1.05C131.155,46.586,131.546,46.287,131.546,46.287z"/>
</g>
<g>
	<path d="M90.506,66.627c0,0,0.086-0.015,0.246-0.042c0.15-0.024,0.403-0.042,0.664-0.093c0.269-0.078,0.489-0.167,0.827-0.29
		c0.313-0.104,0.654-0.257,1.075-0.389c0.868-0.277,1.876-0.509,2.952-0.648c0.53-0.079,1.109-0.108,1.689-0.111
		c0.582-0.016,1.172,0.018,1.762,0.044c0.585,0.042,1.177,0.11,1.758,0.251c0.58,0.112,1.145,0.268,1.687,0.429
		c0.541,0.167,1.057,0.325,1.538,0.583c0.48,0.242,0.925,0.492,1.325,0.74c0.399,0.251,0.756,0.499,1.063,0.733
		c0.152,0.123,0.297,0.225,0.423,0.343l0.094,0.083c-0.124-0.028-0.032-0.006-0.06-0.012l0.003,0.002l0.006,0.005l0.012,0.009
		l0.024,0.019l0.046,0.036c0.062,0.048,0.12,0.094,0.176,0.138c0.218,0.177,0.389,0.316,0.506,0.411
		c0.12,0.103,0.185,0.158,0.185,0.158s-0.076,0.051-0.224,0.126c-0.144,0.067-0.379,0.204-0.644,0.283
		c-0.067,0.024-0.139,0.049-0.214,0.075l-0.057,0.02l-0.028,0.01l-0.015,0.005l-0.008,0.002l-0.003,0.001
		c-0.029-0.006,0.06,0.015-0.066-0.014l-0.122,0.035c-0.168,0.053-0.34,0.083-0.526,0.13c-0.371,0.083-0.779,0.159-1.214,0.224
		c-0.434,0.061-0.894,0.109-1.369,0.136c-0.467,0.003-0.985,0.085-1.502,0.102c-0.519,0.023-1.049,0.037-1.581,0.004
		c-0.53-0.022-1.07-0.076-1.625-0.089c-0.547-0.052-1.095-0.098-1.632-0.191c-0.539-0.079-1.061-0.197-1.599-0.307
		c-1.06-0.227-2.045-0.541-2.885-0.887c-0.433-0.184-0.876-0.361-1.247-0.594c-0.356-0.191-0.707-0.5-0.922-0.7
		c-0.212-0.206-0.298-0.432-0.394-0.557C90.549,66.702,90.506,66.627,90.506,66.627z"/>
</g>
<g>
	<path d="M164.667,138.027c0,0-0.163,0.047-0.47,0.135c-0.282,0.106-0.688,0.288-1.026,0.626c-0.163,0.177-0.313,0.377-0.42,0.639
		c-0.112,0.237-0.19,0.544-0.344,0.945c-0.142,0.379-0.291,0.782-0.449,1.207c-0.18,0.431-0.443,0.894-0.689,1.379
		c-0.234,0.504-0.592,0.941-0.926,1.438c-0.319,0.506-0.76,0.952-1.223,1.418l-0.349,0.353l-0.18,0.175l-0.091,0.088l-0.023,0.022
		c0.088-0.058-0.132,0.09-0.113,0.077l-0.011,0.008l-0.043,0.033l-0.346,0.266c-0.136,0.095-0.182,0.163-0.411,0.287
		c-0.387,0.212-0.807,0.476-1.217,0.593l-0.631,0.211c-0.225,0.055-0.468,0.089-0.705,0.127c-0.461,0.097-1.023,0.049-1.548-0.001
		c-0.55-0.128-1.108-0.266-1.618-0.583c-0.544-0.264-0.941-0.68-1.364-1.086l-0.409-0.542c-0.032-0.032-0.125-0.188-0.209-0.34
		c-0.083-0.148-0.161-0.3-0.235-0.452c-0.506-1.131-0.589-2.142-0.548-3.036c0.018-0.449,0.072-0.842,0.123-1.215l0.042-0.271
		l0.021-0.136l0.005-0.033l0.047-0.214l0.015-0.059l0.117-0.475l0.255-0.942c0.095-0.322,0.141-0.603,0.308-0.987
		c0.277-0.725,0.594-1.442,0.902-2.132c0.63-1.212,1.291-2.361,1.937-3.373c0.645-1.065,1.359-2.056,1.809-2.838
		c0.242-0.401,0.428-0.781,0.568-1.149c0.093-0.187,0.119-0.368,0.184-0.554l0.021-0.069l0.006-0.018l0.003-0.009
		c0.016-0.122-0.031,0.261,0.036-0.275l0.016-0.045l0.104-0.293c0.056-0.146,0.129-0.289,0.214-0.421
		c0.042-0.065,0.088-0.128,0.134-0.188c0.041-0.049,0.053-0.054,0.081-0.082c0.081-0.077,0.238-0.219,0.236-0.201
		c0.82-0.575,1.568-1.077,2.252-1.516c0.695-0.438,1.426-0.733,1.954-0.994c0.548-0.258,0.963-0.438,1.284-0.535
		c0.376-0.092,0.526,0.06,0.524,0.038c0.007,0.005-0.2,0.012-0.378,0.209c-0.204,0.213-0.459,0.637-0.816,1.07
		c-0.347,0.467-0.767,0.955-1.228,1.604c-0.455,0.668-0.99,1.417-1.572,2.202c-0.091,0.1-0.017,0.05-0.021,0.062
		c0.008-0.006-0.006,0.01,0.018-0.015c0.031-0.032,0.061-0.068,0.087-0.107c0.053-0.078,0.094-0.169,0.118-0.261
		c0.03-0.147,0.013-0.044,0.015-0.027l-0.005,0.095l-0.003,0.048c0.065-0.529,0.019-0.138,0.033-0.252l0.001,0.015l0.001,0.03
		l0.004,0.119c0.002,0.318,0.031,0.659-0.01,0.985c-0.042,0.669-0.196,1.33-0.379,1.964c-0.397,1.293-0.894,2.339-1.355,3.45
		c-0.244,0.556-0.492,1.121-0.744,1.692c-0.226,0.553-0.465,1.104-0.718,1.654c-0.178,0.496-0.335,0.981-0.542,1.46
		c-0.11,0.206-0.174,0.572-0.255,0.876l-0.236,0.948l-0.128,0.471l-0.016,0.06l-0.004,0.015c0.016-0.077-0.043,0.192,0.035-0.169
		l-0.004,0.026l-0.02,0.105l-0.037,0.21c-0.044,0.27-0.084,0.522-0.094,0.721c-0.034,0.396,0.01,0.705,0.011,0.757
		c-0.006-0.009-0.017-0.015-0.03-0.019c-0.018-0.007-0.047-0.015,0.021,0.078l0.13,0.201l0.064,0.101l0.031,0.051l0.016,0.025
		l0.008,0.013c-0.052-0.067,0.126,0.169-0.113-0.147c0.05,0.015,0.043,0.122,0.082,0.122c0.007,0.059,0.069,0.051,0.109,0.112
		c0.089-0.009,0.145,0.087,0.289,0.065l0.199,0.019c0.078-0.016,0.157-0.027,0.238-0.036c0.182-0.006,0.273-0.067,0.432-0.073
		c0.047,0.02,0.233-0.098,0.349-0.146l0.392-0.19l0.049-0.024l0.012-0.006c0.026-0.017-0.187,0.124-0.092,0.062l0.019-0.012
		l0.074-0.049l0.148-0.099l0.302-0.187c0.204-0.124,0.406-0.246,0.605-0.366c0.203-0.119,0.365-0.296,0.555-0.432
		c0.361-0.295,0.748-0.561,1.048-0.88c0.32-0.31,0.633-0.588,0.94-0.901c0.304-0.336,0.592-0.655,0.863-0.954
		c0.272-0.267,0.536-0.63,0.9-0.893c0.331-0.269,0.699-0.446,1.025-0.557c0.669-0.22,1.19-0.091,1.509-0.045
		C164.504,137.974,164.667,138.027,164.667,138.027z"/>
</g>
<g>
	<path d="M156.867,127.347c0,0-0.083,0.027-0.24,0.077c-0.146,0.045-0.396,0.103-0.65,0.187c-0.253,0.101-0.507,0.219-0.801,0.382
		c-0.144,0.072-0.286,0.149-0.425,0.257c-0.14,0.094-0.279,0.181-0.411,0.307c-0.133,0.105-0.267,0.212-0.392,0.351
		c-0.128,0.116-0.257,0.25-0.38,0.392c-0.123,0.126-0.252,0.287-0.376,0.43l-0.047,0.055l-0.007,0.007l-0.003,0.003
		c-0.017,0.013,0.144-0.103,0.073-0.051l-0.016,0.02l-0.033,0.038l-0.136,0.149l-0.277,0.301c-0.367,0.402-0.794,0.803-1.187,1.177
		c-0.329,0.379-0.692,0.721-1.055,1.063c-0.382,0.303-0.758,0.741-1.167,1.067c-0.196,0.179-0.401,0.348-0.612,0.507
		c-0.203,0.171-0.395,0.354-0.604,0.512c-0.419,0.349-0.788,0.594-1.266,0.952c-0.383,0.243-0.948,0.671-1.493,0.891
		c-0.536,0.248-1.138,0.37-1.639,0.372c-0.257-0.018-0.49-0.049-0.691-0.1c-0.201-0.06-0.372-0.148-0.519-0.214
		c-0.297-0.112-0.467-0.342-0.593-0.432c-0.12-0.111-0.175-0.179-0.175-0.179s0.081-0.036,0.233-0.103
		c0.144-0.068,0.355-0.133,0.567-0.281c0.22-0.117,0.429-0.331,0.592-0.533c0.159-0.241,0.28-0.471,0.406-0.789
		c0.146-0.309,0.203-0.595,0.468-1.101c0.173-0.394,0.488-0.942,0.778-1.413c0.294-0.494,0.64-0.984,1.042-1.443
		c0.399-0.476,0.771-0.926,1.27-1.376c0.497-0.43,0.993-0.862,1.511-1.245c0.49-0.343,0.974-0.598,1.464-0.857
		c0.285-0.145,0.565-0.286,0.84-0.426c0.324-0.122,0.608-0.268,0.942-0.339c0.633-0.176,1.266-0.261,1.849-0.219
		c0.288,0.01,0.561,0.046,0.816,0.111c0.253,0.054,0.484,0.117,0.694,0.218c0.413,0.151,0.762,0.405,1.009,0.584
		c0.242,0.176,0.365,0.386,0.48,0.496C156.812,127.279,156.867,127.347,156.867,127.347z"/>
</g>
<g>
	<path d="M144.387,126.987c0,0-0.335,0.14-0.897,0.285c-0.286,0.069-0.533,0.281-0.779,0.402c-0.263,0.208-0.536,0.348-0.78,0.622
		c-0.248,0.218-0.486,0.511-0.737,0.802c-0.259,0.32-0.532,0.658-0.814,1.007c-0.15,0.205-0.295,0.373-0.477,0.582
		c-0.184,0.218-0.372,0.435-0.573,0.64c-0.385,0.426-0.829,0.83-1.215,1.219c-0.411,0.373-0.841,0.751-1.256,1.09
		c-0.384,0.354-0.797,0.671-1.21,0.976c-0.41,0.305-0.747,0.613-1.137,0.889c-0.196,0.137-0.388,0.27-0.572,0.398
		c-0.391,0.367-0.369,0.27-0.753,0.555c-0.708,0.506-1.295,0.529-1.821,0.549c-0.515-0.028-0.9-0.18-1.185-0.32
		c-0.287-0.132-0.479-0.3-0.604-0.403c-0.127-0.105-0.188-0.171-0.188-0.171s0.079-0.04,0.228-0.114
		c0.144-0.055,0.352-0.182,0.576-0.307c0.227-0.13,0.463-0.336,0.638-0.541c0.075-0.127,0.157-0.214,0.194-0.349l0.057-0.17
		c-0.009-0.054-0.021-0.097-0.032-0.129c-0.056-0.006,0.213-0.496,0.125-0.49c0.095-0.247,0.209-0.495,0.32-0.758
		c0.242-0.505,0.494-1.084,0.834-1.577c0.339-0.491,0.704-0.995,1.11-1.476c0.395-0.478,0.837-0.879,1.271-1.311
		c0.459-0.418,0.89-0.788,1.354-1.137c0.225-0.181,0.459-0.347,0.693-0.508c0.237-0.167,0.515-0.362,0.775-0.52
		c0.546-0.338,1.13-0.627,1.739-0.844c0.617-0.204,1.234-0.345,1.835-0.346c0.579-0.047,1.132,0.106,1.567,0.22
		c0.461,0.185,0.844,0.369,1.054,0.56C144.156,126.706,144.387,126.987,144.387,126.987z"/>
</g>
<g>
	<path d="M139.227,122.787c0,0-0.102,0.078-0.293,0.224c-0.186,0.136-0.493,0.341-0.807,0.602c-0.325,0.24-0.678,0.593-1.059,0.957
		c-0.357,0.395-0.719,0.825-1.008,1.335c-0.138,0.261-0.299,0.5-0.401,0.8c-0.129,0.271-0.237,0.573-0.33,0.889
		c-0.277,0.743-0.578,1.575-0.923,2.389c-0.339,0.823-0.709,1.663-1.115,2.5c-0.383,0.824-0.86,1.722-1.25,2.471l-0.17,0.311
		c0.048-0.056,0.09-0.15,0.098-0.235c-0.063,0.183-0.114,0.445-0.173,0.663c-0.069,0.252-0.079,0.404-0.209,0.733l-0.348,0.9
		c-0.474,1.12-1.045,1.958-1.629,2.738c-0.578,0.765-1.175,1.423-1.707,2.007c-0.268,0.288-0.528,0.568-0.78,0.839l-0.188,0.197
		l-0.093,0.098l-0.047,0.048l-0.006,0.007c-0.021,0.033,0.04-0.067-0.05,0.077l-0.013,0.012l-0.025,0.025l-0.205,0.2l-0.109,0.104
		l-0.051,0.045v-0.021c-0.01-0.047-0.034,0.021,0.031-0.313c0.003-0.063-0.002-0.124-0.014-0.183l-0.022-0.085l-0.008-0.021
		c0.028,0.313,0.007,0.092,0.013,0.163l-0.003,0.017l-0.023,0.129l-0.048,0.253c-0.022,0.147-0.076,0.368-0.134,0.535
		c-0.25,0.685-0.668,1.014-1.007,1.217c-0.353,0.211-0.618,0.292-0.863,0.37c-0.112,0.035-0.221,0.068-0.323,0.101
		c-0.179,0.093-0.243,0.084-0.362,0.129c-0.406,0.14-0.775,0.195-1.015,0.24c-0.242,0.036-0.371,0.056-0.371,0.056
		s0.291-0.4,0.802-1.101c0.048-0.077,0.168-0.202,0.167-0.252c0.077-0.107,0.158-0.221,0.242-0.338
		c0.151-0.223,0.344-0.433,0.407-0.62c0.061-0.099,0.036-0.171,0.057-0.234c-0.041-0.044-0.02-0.125-0.101-0.069
		c-0.027,0.01-0.034,0.071-0.039,0.056l-0.069-0.249l-0.034-0.127l-0.005-0.016c0.006,0.066-0.016-0.16,0.013,0.147l-0.005-0.036
		l-0.012-0.148c-0.005-0.102-0.003-0.206,0.007-0.311c0.067-0.515,0.153-0.59,0.229-0.792c0.081-0.185,0.163-0.373,0.247-0.565
		l0.014-0.032l0.007-0.017c-0.087,0.14-0.022,0.034-0.041,0.063l0.004-0.009l0.026-0.069l0.054-0.141l0.109-0.287
		c0.148-0.39,0.32-0.774,0.49-1.154c0.343-0.722,0.705-1.482,1.08-2.27c0.162-0.358,0.327-0.724,0.495-1.093l0.191-0.532
		c0.072-0.174,0.152-0.356,0.174-0.484c0.038-0.141,0.08-0.279,0.127-0.416c0.025-0.051,0.045-0.159,0.068-0.282l0.074-0.345
		c0.055-0.238,0.085-0.441,0.16-0.71c0.08-0.31,0.192-0.63,0.315-0.909l0.163-0.314c0.508-0.912,0.932-1.674,1.434-2.484
		c0.48-0.797,0.982-1.565,1.486-2.299c0.506-0.738,0.998-1.424,1.525-2.09c0.576-0.8,1.289-1.467,2.009-1.947
		c0.348-0.254,0.736-0.421,1.075-0.596c0.356-0.147,0.701-0.257,1.019-0.354c0.647-0.152,1.212-0.208,1.679-0.211
		c0.458-0.039,0.793,0.052,1.032,0.064C139.1,122.768,139.227,122.787,139.227,122.787z"/>
</g>
<g>
	<path d="M124.947,143.067c0,0-0.283,0.216-0.78,0.491c-0.281,0.106-0.463,0.39-0.678,0.569c-0.1,0.089-0.202,0.203-0.3,0.352
		c-0.092,0.12-0.188,0.246-0.288,0.377c-0.082,0.148-0.168,0.303-0.257,0.463c-0.04,0.078-0.086,0.146-0.131,0.216l-0.017,0.025
		l-0.008,0.014l-0.003,0.003c0.133-0.103-0.182,0.143-0.151,0.119l-0.007,0.009l-0.06,0.072l-0.119,0.146
		c-0.174,0.204-0.304,0.371-0.545,0.589c-0.339,0.25-0.73,0.472-1.136,0.687c-0.759,0.331-1.523,0.563-2.356,0.584
		c-0.414,0.043-0.827,0.015-1.24-0.053c-0.417-0.041-0.823-0.146-1.224-0.289l-0.593-0.224c-0.19-0.096-0.377-0.206-0.563-0.313
		c-0.379-0.202-0.725-0.451-1.038-0.765l-0.466-0.449l-0.055-0.059l-0.207-0.235l-0.053-0.089l-0.107-0.178l-0.224-0.377
		c-0.146-0.258-0.264-0.533-0.367-0.803c-0.235-0.542-0.24-1.068-0.261-1.576c0.019-0.26,0.08-0.528,0.138-0.779l0.1-0.368
		l0.027-0.089c0.011-0.044-0.074,0.337-0.037,0.174l0.003-0.006l0.005-0.011l0.01-0.021l0.041-0.086
		c0.205-0.421,0.398-0.818,0.577-1.185c0.085-0.159,0.166-0.312,0.243-0.456c0.087-0.167,0.148-0.375,0.23-0.544
		c0.146-0.349,0.309-0.654,0.458-0.921c0.292-0.518,0.517-0.775,0.517-0.775s0.211,0.31,0.478,0.785
		c0.123,0.23,0.312,0.526,0.479,0.869c0.089,0.177,0.171,0.337,0.257,0.558c0.081,0.235,0.148,0.49,0.223,0.766
		c0.155,0.613,0.188,1.018,0.249,1.539l0.011,0.095l0.002,0.024l0.002,0.012v0.006c0.036-0.16-0.049,0.225-0.039,0.186l0.018,0.003
		c0.022,0.003,0.043,0.004,0.06,0.002c0.038-0.002,0.047-0.019,0.072-0.025c0.114-0.017,0.085,0.012,0.146-0.072
		c0.013-0.031,0.013-0.065-0.015-0.08l0.275,0.269l0.148,0.145l0.075,0.072c-0.067-0.078,0.158,0.182-0.15-0.174l0.003,0.001
		l0.006,0.002l0.013,0.004l0.024,0.009c0.061,0.028,0.116,0.059,0.17,0.092c0.089,0.081,0.231,0.113,0.354,0.174l0.181,0.098
		c0.072,0.016,0.144,0.03,0.212,0.053c0.131,0.064,0.268,0.118,0.418,0.129c0.146,0.024,0.287,0.104,0.435,0.095
		c0.288,0.065,0.609,0.05,0.867,0.088c0.084,0.007,0.174,0.023,0.306,0.072c0.199-0.037,0.466-0.185,0.696-0.251l0.179-0.063
		l0.088-0.03l0.011-0.004c0.034-0.025-0.277,0.218-0.142,0.113l0.007-0.004l0.027-0.013l0.056-0.026
		c0.148-0.068,0.292-0.136,0.438-0.19c0.294-0.11,0.556-0.228,0.832-0.297c0.608-0.079,1.08-0.185,1.578-0.085
		c0.467,0.081,0.869,0.156,1.089,0.318C124.663,142.849,124.947,143.067,124.947,143.067z"/>
</g>
<g>
	<path d="M147.147,124.767c0,0-0.064,0.082-0.185,0.236c-0.062,0.074-0.138,0.165-0.228,0.271c-0.073,0.117-0.153,0.238-0.239,0.362
		c-0.168,0.257-0.329,0.609-0.442,0.952c-0.088,0.368-0.156,0.719-0.102,1.109c0.002,0.09,0.021,0.191,0.038,0.289l0.022,0.146
		l0.006,0.035l0.003,0.018l0.001,0.009l0.001,0.005c0.005-0.022-0.04,0.213-0.021,0.116l0.003,0.115
		c0.009,0.307-0.003,0.619-0.004,0.942c-0.05,0.656-0.276,1.696-0.497,2.344c-0.107,0.37-0.237,0.747-0.37,1.078
		c-0.116,0.323-0.292,0.744-0.388,0.986l-0.207,0.505c-0.044,0.139-0.078,0.255-0.129,0.378c-0.11,0.243-0.142,0.484-0.224,0.723
		l-0.068,0.332l-0.04,0.165l-0.005,0.021l-0.062,0.333l-0.005,0.017l-0.019,0.066l-0.037,0.132c-0.06,0.194-0.054,0.275-0.251,0.713
		c-0.079,0.179-0.165,0.354-0.255,0.524l-0.139,0.253l-0.091,0.136l-0.335,0.487l-0.24,0.3c-0.148,0.208-0.366,0.573-0.561,0.836
		c-0.371,0.565-0.845,1.139-1.153,1.601c-0.331,0.47-0.674,0.916-1.013,1.333c-0.357,0.407-0.648,0.851-0.895,1.162
		c-0.24,0.333-0.458,0.627-0.574,0.904c-0.119,0.274-0.218,0.533-0.239,0.712c-0.038,0.191-0.059,0.293-0.059,0.293
		s-0.079-0.064-0.218-0.211c-0.134-0.145-0.337-0.389-0.479-0.756c-0.161-0.365-0.277-0.854-0.312-1.392
		c-0.024-0.556-0.043-1.091,0.047-1.692c0.078-0.604,0.188-1.264,0.336-1.963c0.149-0.717,0.361-1.294,0.589-1.97
		c0.118-0.352,0.215-0.612,0.392-1.035l0.3-0.624l0.227-0.436l0.05-0.097l-0.019,0.008c-0.01,0.009-0.015,0.021-0.013,0.035
		c-0.005,0.123,0.056-0.163,0.094-0.321l0.031-0.134l0.017-0.067l0.004-0.017l0.002-0.008c0.013-0.071-0.108,0.596-0.056,0.308
		l0.007-0.047l0.059-0.377c0.043-0.25,0.081-0.505,0.136-0.75c0.152-0.459,0.28-0.941,0.479-1.363
		c0.091-0.215,0.192-0.438,0.292-0.634l0.267-0.477c0.216-0.411,0.367-0.629,0.564-0.942c0.176-0.278,0.349-0.553,0.52-0.822
		c0.155-0.24,0.309-0.477,0.458-0.707c0.136-0.229,0.285-0.355,0.424-0.671c0.141-0.292,0.266-0.579,0.407-0.852l0.053-0.103
		c0.02-0.101-0.023,0.131-0.018,0.104l0.003-0.009l0.008-0.019l0.015-0.036l0.029-0.071l0.118-0.278
		c0.079-0.183,0.15-0.357,0.266-0.521c0.374-0.675,0.929-1.152,1.409-1.467c0.507-0.305,0.971-0.431,1.354-0.505
		c0.389-0.087,0.67-0.058,0.859-0.047C147.042,124.758,147.147,124.767,147.147,124.767z"/>
</g>
<g>
	<path d="M102.027,120.626c0,0-0.013,0.057-0.037,0.162c-0.027,0.099-0.054,0.276-0.114,0.438c-0.108,0.354-0.287,0.8-0.538,1.252
		c-0.104,0.227-0.319,0.43-0.566,0.628c-0.245,0.195-0.524,0.389-0.833,0.552c-0.152,0.09-0.313,0.165-0.479,0.24
		c-0.147,0.059-0.28,0.104-0.426,0.147c-0.286,0.085-0.581,0.148-0.88,0.188c-0.621,0.085-1.118,0.023-1.663-0.115l-0.196-0.055
		l-0.097-0.026l-0.049-0.019l-0.024-0.009l-0.012-0.005l-0.006-0.002l-0.003-0.001c0.068-0.002-0.609,0.01-0.324,0.004
		c-0.118-0.071-0.234-0.128-0.347-0.207c-0.143-0.116-0.644-0.377-0.923-0.629c-0.159-0.137-0.281-0.254-0.309-0.361
		c-0.052-0.116-0.102-0.226-0.148-0.329c-0.107-0.204-0.152-0.4-0.208-0.555c-0.065-0.18-0.116-0.322-0.151-0.419
		c-0.044-0.104-0.067-0.159-0.067-0.159s0.042-0.037,0.12-0.106c0.08-0.063,0.211-0.187,0.379-0.27
		c0.174-0.095,0.406-0.209,0.602-0.282c0.107-0.042,0.221-0.087,0.341-0.135c0.145-0.035,0.207-0.093,0.243-0.169
		c0.109-0.138,0.019-0.214,0.35-0.344c0.121-0.062,0.243-0.103,0.369-0.156c0.288-0.006-0.389,0.006-0.318,0.004l0.003-0.002
		l0.006-0.003l0.011-0.007l0.021-0.013l0.044-0.027l0.089-0.044l0.18-0.089c0.466-0.245,1.054-0.364,1.507-0.436
		c0.239-0.03,0.481-0.036,0.726-0.02c0.118,0.007,0.25,0.025,0.359,0.041c0.09,0.015,0.181,0.031,0.275,0.063
		c0.187,0.047,0.387,0.127,0.595,0.216c0.207,0.093,0.425,0.212,0.688,0.253c0.5,0.138,0.946,0.322,1.276,0.493
		c0.157,0.069,0.304,0.176,0.394,0.225C101.977,120.596,102.027,120.626,102.027,120.626z"/>
</g>
<g>
	<path d="M64.107,121.586c0,0-0.047,0.032-0.134,0.093c-0.084,0.054-0.222,0.167-0.371,0.243c-0.153,0.086-0.344,0.204-0.541,0.282
		c-0.101,0.046-0.208,0.094-0.321,0.145c-0.121,0.044-0.223,0.085-0.302,0.167c-0.143,0.113-0.297,0.236-0.46,0.366
		c-0.12,0.087-0.271,0.213-0.418,0.308c-0.143,0.116-0.275,0.133-0.411,0.227c-0.135,0.078-0.269,0.126-0.412,0.145
		c-0.148,0.05-0.304,0.09-0.472,0.095c-0.167-0.011-0.356,0.036-0.557,0.022c-0.197,0.006-0.414-0.041-0.633-0.035
		c-0.222-0.012-0.451-0.039-0.679-0.075c-0.466-0.085-0.909-0.147-1.26-0.247c-0.164-0.032-0.33-0.099-0.429-0.125
		c-0.104-0.032-0.159-0.049-0.159-0.049s-0.004-0.057-0.013-0.161c-0.003-0.101-0.03-0.275-0.016-0.445
		c0.008-0.178,0.011-0.406,0.056-0.624c0.036-0.23,0.076-0.494,0.178-0.735c0.191-0.495,0.465-1.03,0.948-1.458
		c0.233-0.223,0.469-0.444,0.792-0.595c0.31-0.158,0.636-0.301,0.978-0.404c0.363-0.072,0.736-0.114,1.099-0.125
		c0.359-0.026,0.733,0.08,1.069,0.17c0.336,0.087,0.651,0.213,0.962,0.416c0.3,0.188,0.556,0.396,0.763,0.6
		c0.236,0.197,0.258,0.438,0.373,0.641c0.095,0.19,0.159,0.406,0.217,0.572c0.061,0.157,0.088,0.333,0.116,0.43
		C64.094,121.531,64.107,121.586,64.107,121.586z"/>
</g>
</svg>
